<?xml version="1.0" standalone="no"?>
<!DOCTYPE svg PUBLIC "-//W3C//DTD SVG 20010904//EN"
 "http://www.w3.org/TR/2001/REC-SVG-20010904/DTD/svg10.dtd">
<svg version="1.0" xmlns="http://www.w3.org/2000/svg"
 width="500.000000pt" height="500.000000pt" viewBox="0 0 500.000000 500.000000"
 preserveAspectRatio="xMidYMid meet">
<metadata>
Created by potrace 1.14, written by Peter Selinger 2001-2017
</metadata>
<g transform="translate(0.000000,500.000000) scale(0.100000,-0.100000)"
fill="#000000" stroke="none">
<path d="M0 2500 l0 -2500 2500 0 2500 0 0 2500 0 2500 -2500 0 -2500 0 0
-2500z m2448 1723 c397 -400 934 -942 1192 -1204 458 -465 470 -478 470 -515
-1 -22 -6 -49 -13 -61 -7 -12 -397 -403 -867 -869 -470 -466 -1006 -997 -1190
-1181 -328 -325 -337 -333 -375 -333 -22 0 -51 8 -65 18 -14 9 -180 174 -370
365 l-345 348 0 51 0 50 812 805 813 805 -798 805 c-438 442 -802 816 -809
831 -13 29 -8 76 11 103 6 8 169 172 362 362 l352 347 48 0 49 1 723 -728z"/>
</g>
</svg>
